<svg width="138" height="44" viewBox="0 0 138 44" fill="none" xmlns="http://www.w3.org/2000/svg">
<path d="M136.171 10.1828C135.163 10.1828 134.342 11.0162 134.342 12.04C134.342 13.0638 135.163 13.8971 136.171 13.8971C137.179 13.8971 138 13.0638 138 12.04C138 11.0162 137.179 10.1828 136.171 10.1828ZM136.171 13.6032C135.322 13.6032 134.632 12.9014 134.632 12.04C134.632 11.1786 135.323 10.4767 136.171 10.4767C137.019 10.4767 137.711 11.1786 137.711 12.04C137.711 12.9014 137.019 13.6032 136.171 13.6032ZM136.845 12.8675C136.845 12.8675 136.801 12.8221 136.791 12.5301C136.789 12.3938 136.777 12.2962 136.752 12.2314C136.725 12.155 136.682 12.0941 136.626 12.0526C136.69 12.0129 136.741 11.9655 136.779 11.9104C136.827 11.8321 136.852 11.7345 136.852 11.6204C136.852 11.3865 136.74 11.1071 136.21 11.1071H135.478V12.9739H135.742V12.1705H136.21C136.3 12.1705 136.364 12.1811 136.408 12.2024C136.461 12.2275 136.492 12.2739 136.507 12.3416V12.3571C136.512 12.3948 136.521 12.4895 136.531 12.6384C136.54 12.7921 136.56 12.8936 136.593 12.9497L136.607 12.9739H136.861V12.883L136.844 12.8685L136.845 12.8675ZM136.59 11.6272C136.59 11.7316 136.557 11.8041 136.482 11.8563C136.421 11.9046 136.324 11.9307 136.204 11.9307H135.744V11.3478H136.216C136.551 11.3478 136.59 11.5073 136.59 11.6282V11.6272ZM40.8374 24.5943H44.3809V25.7892C44.3809 26.3229 44.4533 26.7115 44.5961 26.9503C44.8074 27.2935 45.1521 27.4646 45.6157 27.4646C45.9975 27.4646 46.3069 27.335 46.5477 27.0769C46.7715 26.8362 46.8857 26.5481 46.8857 26.2126C46.8857 25.4847 46.4468 24.7364 45.5557 23.9659L43.983 22.7749C42.8339 21.8081 42.1608 21.2019 41.9589 20.9583C41.6781 20.6122 41.4439 20.1907 41.2582 19.7112C41.1164 19.2317 41.0469 18.7328 41.0469 18.1992C41.0469 16.6891 41.4477 15.558 42.2598 14.8001C43.0528 14.0518 44.2048 13.6777 45.7147 13.6777C47.2246 13.6777 48.3985 14.0276 49.1506 14.7392C49.9055 15.4594 50.2845 16.4532 50.2845 17.7274V19.1901H46.8676V18.3181C46.8676 17.8309 46.8076 17.4345 46.6877 17.1271C46.5011 16.7394 46.1764 16.5451 45.7147 16.5451C45.3329 16.5451 45.0264 16.6427 44.8017 16.837C44.5742 17.0584 44.4637 17.3601 44.4637 17.7477C44.4637 18.2572 44.934 18.9088 45.8785 19.689L47.4988 20.9583C48.945 22.2654 49.7666 23.091 49.9427 23.4206C50.3435 24.1515 50.5453 25.0854 50.5453 26.2117C50.5453 27.2007 50.1883 28.0795 49.4905 28.8529C48.5908 29.8312 47.2827 30.3233 45.5776 30.3233C43.8725 30.3233 42.7072 29.866 41.8609 28.9524C41.1821 28.2293 40.8374 27.3544 40.8374 26.3296V24.5953V24.5943ZM52.2019 25.6558V13.929H55.8615V25.6974C55.8615 26.2619 55.9119 26.6719 56.0166 26.93C56.1147 27.2007 56.4174 27.3341 56.9201 27.3341C57.2609 27.3341 57.5294 27.2277 57.7132 27.0218C57.8836 26.8169 57.9693 26.376 57.9693 25.6974V13.929H61.626V25.6558C61.626 27.0827 61.2033 28.2129 60.357 29.052C59.5106 29.897 58.3615 30.3233 56.9211 30.3233C55.4806 30.3233 54.3439 29.9047 53.4947 29.0713C52.6322 28.238 52.2028 27.0992 52.2028 25.6558H52.2019ZM63.4853 30.0632V13.9281H67.4867L70.4238 23.439L70.4676 13.9281H74.0072V30.0632H70.0315L67.0659 20.0902L67.025 30.0632H63.4853ZM79.5871 25.6558V18.3365C79.5871 16.8177 80.0355 15.6441 80.9171 14.83C81.7539 14.0624 82.8811 13.6767 84.3053 13.6767C85.7296 13.6767 86.8035 13.9542 87.5832 14.5023C88.5371 15.1752 89.0141 16.2144 89.0141 17.6269V19.4241H85.5401V17.8144C85.5401 16.9646 85.1546 16.5431 84.3844 16.5431C83.9959 16.5431 83.6837 16.721 83.4523 17.0865C83.3171 17.3794 83.2505 17.6878 83.2505 18.0116V25.9826C83.2505 26.4698 83.3295 26.8468 83.4876 27.1175C83.6456 27.3486 83.9169 27.4636 84.3053 27.4636C85.0822 27.4636 85.4678 27.0566 85.4678 26.2484V24.1699H84.1825V21.1865H89.0141V30.0623H85.8115V28.7523C85.1384 29.7964 84.1816 30.3223 82.9468 30.3223C81.712 30.3223 80.8847 29.8544 80.2878 28.9099C79.8203 28.1288 79.5871 27.045 79.5871 25.6548V25.6558ZM100.297 29.0713C100.268 28.9109 100.256 28.7542 100.256 28.6063V24.1709C100.256 23.498 100.066 22.9295 99.675 22.4781C99.3084 21.9937 98.7943 21.6892 98.1336 21.5722C99.0466 21.2899 99.6588 20.822 99.9749 20.1714C100.215 19.6455 100.335 18.8663 100.335 17.8386C100.335 16.3991 99.9682 15.3869 99.2361 14.8001C98.5163 14.221 97.3349 13.93 95.7088 13.93H90.8744V30.0652H94.5311V23.0997H95.2128C95.7116 23.0997 96.0687 23.2099 96.28 23.4216C96.4914 23.6536 96.6018 23.9862 96.6018 24.427V27.0228C96.6018 27.2297 96.6085 27.5265 96.6142 27.9064C96.6142 28.2834 96.6427 28.6827 96.6961 29.109C96.7903 29.6079 96.9017 29.9289 97.015 30.0642H100.634C100.409 29.7945 100.296 29.4629 100.296 29.0713H100.297ZM96.6361 19.3226L96.519 19.805C96.32 20.1781 95.9535 20.356 95.4232 20.356H94.5292V16.6795H95.2461C95.9002 16.6795 96.3133 16.8351 96.4999 17.1445C96.6132 17.3881 96.6732 17.826 96.6732 18.4525L96.6351 19.3216L96.6361 19.3226ZM113.444 25.6558V13.929H117.104V25.6974C117.104 26.2619 117.157 26.6719 117.259 26.93C117.364 27.2007 117.664 27.3341 118.165 27.3341C118.506 27.3341 118.775 27.2277 118.961 27.0218C119.129 26.8169 119.214 26.376 119.214 25.6974V13.929H122.873V25.6558C122.873 27.0827 122.447 28.2129 121.6 29.052C120.747 29.897 119.608 30.3233 118.164 30.3233C116.721 30.3233 115.587 29.9047 114.738 29.0713C113.875 28.238 113.443 27.0992 113.443 25.6558H113.444ZM110.312 14.8687C109.444 14.0731 108.303 13.6777 106.898 13.6777C105.493 13.6777 104.343 14.0624 103.506 14.831C102.625 15.646 102.18 16.8196 102.18 18.3374V25.6568C102.18 27.1001 102.609 28.238 103.468 29.0723C104.321 29.9057 105.46 30.3243 106.897 30.3243C108.334 30.3243 109.484 29.8979 110.326 29.053C111.179 28.2148 111.602 27.0837 111.602 25.6568V18.3374C111.602 16.8187 111.176 15.6566 110.31 14.8697L110.312 14.8687ZM107.946 25.9835C107.946 26.3103 107.902 26.6119 107.81 26.8942C107.636 27.2741 107.33 27.4646 106.897 27.4646C106.506 27.4646 106.234 27.3495 106.082 27.1185C105.921 26.8478 105.842 26.4708 105.842 25.9835V18.0126C105.842 17.6626 105.883 17.3504 105.975 17.0681C106.148 16.7181 106.454 16.5441 106.897 16.5441C107.34 16.5441 107.664 16.722 107.825 17.0874C107.901 17.3204 107.945 17.6278 107.945 18.0126V25.9835H107.946ZM132.979 14.7991C132.199 14.22 130.753 13.929 128.656 13.929H124.733V30.0642H128.39V23.6701H130.462C131.939 23.6701 132.991 23.1558 133.62 22.1358C133.888 21.725 134.059 21.3131 134.138 20.8984C134.21 20.4991 134.267 20.1917 134.289 19.9751C134.308 19.7682 134.311 19.396 134.311 18.8431C134.311 16.8225 133.868 15.4787 132.978 14.801L132.979 14.7991ZM130.399 20.3763C130.197 20.6615 129.833 20.8027 129.303 20.8027H128.39V16.8022H128.81C129.539 16.8022 130.001 16.8825 130.196 17.0488C130.506 17.3001 130.664 17.8763 130.664 18.7628C130.664 19.5169 130.572 20.0534 130.398 20.3754L130.399 20.3763ZM19.7461 20.8491C19.7728 20.9071 19.787 21.0105 19.787 21.1594L19.7785 21.3653L19.7509 21.4794C19.7033 21.5683 19.6166 21.6099 19.491 21.6099H19.2787V20.7379H19.4491C19.6043 20.7379 19.7023 20.7746 19.7461 20.8481V20.8491ZM27.7384 20.8259C27.8117 20.8858 27.8489 21.0221 27.8489 21.2329C27.8489 21.4117 27.827 21.5393 27.786 21.6157C27.7384 21.6834 27.6518 21.7172 27.5261 21.7172H27.31V20.7688H27.41C27.5832 20.7688 27.6927 20.7882 27.7384 20.8278V20.8259ZM22.4327 20.8346C22.4508 20.8897 22.4613 20.9632 22.4613 21.054V22.945C22.4613 23.0223 22.4508 23.0939 22.4289 23.1606C22.388 23.2505 22.3147 23.2959 22.2128 23.2959C22.1195 23.2959 22.0557 23.2689 22.0196 23.2138C21.9815 23.15 21.9624 23.06 21.9624 22.944V21.0531C21.9624 20.9699 21.972 20.8955 21.9939 20.8288C22.0348 20.7456 22.1081 20.7041 22.2128 20.7041C22.3176 20.7041 22.3947 20.7466 22.4327 20.8326V20.8346ZM31.9236 19.1892H4.52501C6.05017 16.6156 9.26233 14.6628 14.2643 13.4254C23.1953 11.2221 28.065 17.3426 30.8592 17.7197C33.6544 18.0929 34.355 16.7607 35.2585 15.7166C28.6962 14.8687 22.6517 6.04803 17.8678 0C13.3837 5.34036 7.45632 15.2177 0 15.5909V23.3481H3.44541V24.7354H30.7802C29.2702 27.3486 26.0467 29.3256 20.9971 30.5737C12.0661 32.7818 7.13644 26.6264 4.39934 26.2794C1.6613 25.9333 0.903479 27.2432 0 28.2815C6.56522 29.1264 13.039 37.9549 17.823 44C22.3109 38.6596 27.8022 28.7803 35.2576 28.412V20.5745L31.9226 20.5774V19.1892H31.9236ZM8.5959 23.6256C8.38265 23.8576 8.07228 23.9746 7.66767 23.9746C7.26306 23.9746 6.98697 23.8663 6.78609 23.6498C6.6252 23.4787 6.54332 23.2708 6.54332 23.0272V22.6153H7.38397V22.8986C7.38397 23.0252 7.4011 23.1171 7.43538 23.1741C7.48583 23.2553 7.56676 23.2959 7.67719 23.2959C7.76763 23.2959 7.84094 23.265 7.89806 23.2041C7.95138 23.1471 7.97803 23.0784 7.97803 22.9991C7.97803 22.8261 7.87426 22.6492 7.66291 22.4665L7.28971 22.1842C7.01743 21.955 6.85749 21.811 6.80989 21.753C6.74325 21.6708 6.68803 21.5712 6.64328 21.4572C6.60996 21.3431 6.59283 21.2251 6.59283 21.0985C6.59283 20.7398 6.68803 20.472 6.88034 20.2922C7.06884 20.1143 7.34208 20.0264 7.70004 20.0264C8.05801 20.0264 8.33695 20.1095 8.51498 20.2777C8.69396 20.4488 8.78345 20.6847 8.78345 20.9864V21.3334H7.97327V21.1265C7.97327 21.0105 7.95899 20.9167 7.93043 20.8442C7.88664 20.7524 7.80857 20.706 7.70004 20.706C7.6096 20.706 7.53629 20.7292 7.48393 20.7756C7.42966 20.8278 7.40396 20.8993 7.40396 20.9912C7.40396 21.112 7.51535 21.2667 7.73907 21.4514L8.1237 21.753C8.46643 22.0633 8.66159 22.2586 8.70348 22.3369C8.79869 22.51 8.84629 22.7314 8.84629 22.9991C8.84629 23.2341 8.76156 23.4419 8.5959 23.6256ZM11.4739 22.8677C11.4739 23.206 11.3739 23.4748 11.1731 23.673C10.9722 23.8731 10.6999 23.9746 10.3581 23.9746C10.0163 23.9746 9.74691 23.875 9.54508 23.6778C9.34039 23.4796 9.23853 23.2099 9.23853 22.8677V20.0863H10.1068V22.8773C10.1068 23.0107 10.1192 23.1084 10.1439 23.1703C10.1668 23.2341 10.2391 23.266 10.3581 23.266C10.439 23.266 10.5028 23.2408 10.5457 23.1915C10.5866 23.1432 10.6066 23.0378 10.6066 22.8773V20.0863H11.4739V22.8677ZM14.4109 23.9127H13.4675L12.7639 21.5471L12.7544 23.9127H11.9147V20.0853H12.8639L13.5608 22.3417L13.5712 20.0853H14.4109V23.9127ZM17.9706 21.3895H17.1471V21.0076C17.1471 20.8065 17.0557 20.706 16.8729 20.706C16.7805 20.706 16.7063 20.7485 16.652 20.8346C16.6196 20.9042 16.6044 20.9777 16.6044 21.054V22.945C16.6044 23.061 16.6234 23.15 16.6606 23.2147C16.6977 23.2698 16.7624 23.2969 16.8548 23.2969C17.0395 23.2969 17.1309 23.2002 17.1309 23.0088V22.5158H16.8262V21.8081H17.9725V23.9137H17.2128V23.6034C17.0528 23.8509 16.8262 23.9756 16.533 23.9756C16.2398 23.9756 16.0437 23.8644 15.9028 23.6401C15.7923 23.4545 15.7361 23.1973 15.7361 22.8677V21.1314C15.7361 20.7708 15.8428 20.4933 16.0513 20.3C16.2493 20.1182 16.5168 20.0264 16.8548 20.0264C17.1928 20.0264 17.447 20.0921 17.6326 20.2226C17.8592 20.3821 17.9715 20.6287 17.9715 20.9641V21.3905L17.9706 21.3895ZM19.868 23.9127C19.8413 23.8808 19.8147 23.8045 19.7928 23.6865C19.7804 23.585 19.7728 23.4903 19.7728 23.4013C19.7709 23.3114 19.7699 23.2408 19.7699 23.1915V22.5757C19.7699 22.4713 19.7433 22.392 19.6937 22.3369C19.6433 22.2866 19.5586 22.2605 19.4405 22.2605H19.2787V23.9127H18.4114V20.0853H19.5586C19.9441 20.0853 20.224 20.1549 20.3954 20.2922C20.5696 20.4314 20.6563 20.6712 20.6563 21.0134C20.6563 21.257 20.6277 21.4417 20.5706 21.5664C20.4954 21.7211 20.3507 21.8323 20.1336 21.899C20.2897 21.927 20.4125 21.9986 20.4992 22.1136C20.5925 22.2209 20.6372 22.3553 20.6372 22.5148V23.5666C20.6372 23.6014 20.6401 23.6391 20.6467 23.6768C20.6467 23.7696 20.6734 23.848 20.7267 23.9118H19.868V23.9127ZM23.3286 22.8677C23.3286 23.206 23.2286 23.4748 23.0259 23.673C22.8259 23.8731 22.5537 23.9746 22.2128 23.9746C21.872 23.9746 21.6016 23.875 21.3998 23.6778C21.1961 23.4796 21.0942 23.2099 21.0942 22.8677V21.1314C21.0942 20.7708 21.1999 20.4933 21.4084 20.3C21.6073 20.1182 21.8749 20.0264 22.2128 20.0264C22.5508 20.0264 22.8164 20.1201 23.0221 20.3087C23.2277 20.4952 23.3286 20.7708 23.3286 21.1314V22.8677ZM26.0019 22.8677C26.0019 23.206 25.901 23.4748 25.7001 23.673C25.4983 23.8731 25.2279 23.9746 24.8852 23.9746C24.5425 23.9746 24.274 23.875 24.0721 23.6778C23.8675 23.4796 23.7646 23.2099 23.7646 22.8677V20.0863H24.6329V22.8773C24.6329 23.0107 24.6453 23.1084 24.67 23.1703C24.6948 23.2341 24.7662 23.266 24.8852 23.266C24.9661 23.266 25.0299 23.2408 25.0737 23.1915C25.1137 23.1432 25.1337 23.0378 25.1337 22.8773V20.0863H26.0019V22.8677ZM28.7095 21.519C28.7038 21.5703 28.6905 21.6437 28.6733 21.7385C28.6543 21.8371 28.6143 21.9347 28.5505 22.0324C28.401 22.2741 28.1516 22.3959 27.8013 22.3959H27.31V23.9127H26.4427V20.0853H27.3728C27.8708 20.0853 28.2135 20.1549 28.3982 20.2922C28.6095 20.4527 28.7143 20.7717 28.7143 21.2512C28.7143 21.3827 28.7143 21.4707 28.7095 21.52V21.519Z" fill="#FFC114"/>
</svg>
